<svg width="33" height="30" viewBox="0 0 33 30" fill="none" xmlns="http://www.w3.org/2000/svg">
<path d="M9.99737 20.8251H6.87612C5.69679 20.7978 4.76306 19.9099 4.78612 18.8376V10.0876C4.76306 9.01537 5.69679 8.12743 6.87612 8.10013H14.7136C15.2756 8.10013 15.7311 7.686 15.7311 7.17513C15.7311 6.66427 15.2756 6.25013 14.7136 6.25013H6.87612C5.76522 6.24986 4.70116 6.65694 3.92475 7.37924C3.14833 8.10154 2.7252 9.078 2.75112 10.0876V18.8376C2.7252 19.8473 3.14833 20.8237 3.92475 21.546C4.70116 22.2683 5.76522 22.6754 6.87612 22.6751H9.99737C10.5593 22.6751 11.0149 22.261 11.0149 21.7501C11.0149 21.2393 10.5593 20.8251 9.99737 20.8251Z" fill="#EE3C08"/>
<path fill-rule="evenodd" clip-rule="evenodd" d="M26.5936 9.77513H27.0886C28.3896 9.75418 29.4648 10.6926 29.4949 11.8751V17.0501C29.4648 18.2327 28.3896 19.1711 27.0886 19.1501H26.5799C26.4488 21.1328 24.6398 22.6787 22.4549 22.6751H16.2261C15.6642 22.6751 15.2086 22.261 15.2086 21.7501C15.2086 21.2393 15.6642 20.8251 16.2261 20.8251H22.4549C23.6342 20.7978 24.5679 19.9099 24.5449 18.8376V10.0876C24.5679 9.01537 23.6342 8.12742 22.4549 8.10013H20.9011C20.3392 8.10013 19.8836 7.68599 19.8836 7.17513C19.8836 6.66426 20.3392 6.25013 20.9011 6.25013H22.4686C24.6535 6.24655 26.4625 7.79241 26.5936 9.77513ZM27.0886 17.2751C27.2811 17.2751 27.4324 17.1626 27.4324 17.0501V11.8751C27.4324 11.7626 27.2811 11.6501 27.0886 11.6501H26.6349V17.2751H27.0886Z" fill="#EE3C08"/>
<path d="M20.3511 14.3751C20.101 13.8104 19.5079 13.4329 18.8386 13.4126H13.3386L19.0449 8.21263C19.4831 7.79684 19.4831 7.14093 19.0449 6.72513C18.8282 6.52743 18.5338 6.41631 18.2268 6.41631C17.9197 6.41631 17.6253 6.52743 17.4086 6.72513L10.7261 12.8376C10.2254 13.2863 10.0758 13.967 10.3484 14.5561C10.6209 15.1453 11.2607 15.5241 11.9636 15.5126H17.3811L11.6749 20.7126C11.4574 20.9097 11.3352 21.1773 11.3352 21.4564C11.3352 21.7355 11.4574 22.0031 11.6749 22.2001C11.8898 22.3954 12.1823 22.5036 12.4861 22.5001C12.7894 22.5008 13.0808 22.3931 13.2974 22.2001L19.9799 16.1251C20.4933 15.6694 20.6413 14.9717 20.3511 14.3751Z" fill="#EE3C08"/>
</svg>
