<svg width="31" height="30" viewBox="0 0 31 30" fill="none" xmlns="http://www.w3.org/2000/svg">
<g clip-path="url(#clip0_2003_171)">
<path d="M24.2122 3.28857C24.8882 3.72314 25.5208 4.2041 26.1045 4.73144C28.8195 7.17285 30.4973 10.5444 30.4973 14.27C30.4973 17.9956 28.8195 21.3672 26.1045 23.8086C23.3896 26.25 19.6403 27.7588 15.5 27.7588C13.6023 27.7588 11.7887 27.4414 10.1163 26.8652L12.3887 24.6094C13.3796 24.8511 14.4222 24.978 15.5 24.978C18.7878 24.978 21.7661 23.7793 23.919 21.8408C26.0747 19.9023 27.405 17.2266 27.405 14.27C27.405 11.3135 26.0719 8.63525 23.919 6.69922C23.4683 6.29395 22.9824 5.92285 22.4665 5.58594L24.2122 3.28857ZM5.43575 24.2725C5.25113 24.1211 5.06923 23.9673 4.89276 23.8086C2.17783 21.3672 0.5 17.9956 0.5 14.27C0.5 10.5444 2.17783 7.17285 4.89276 4.73144C7.0267 2.8125 9.79864 1.46973 12.8991 0.983887L10.9036 4.38965C9.46199 4.93164 8.16425 5.72266 7.07828 6.69922C4.92262 8.6377 3.58959 11.3135 3.58959 14.27C3.58959 17.1558 4.85747 19.7729 6.92081 21.6992L5.43575 24.2725Z" fill="#EE3C08"/>
<path fill-rule="evenodd" clip-rule="evenodd" d="M24.6489 0L15.9177 0.10498L7.5068 14.4629L13.2353 14.5166L4.28418 30L24.4751 10.1465H16.933L24.6489 0Z" fill="#EE3C08"/>
</g>
<defs>
<clipPath id="clip0_2003_171">
<rect width="30" height="30" fill="white" transform="translate(0.5)"/>
</clipPath>
</defs>
</svg>
