<svg width="31" height="30" viewBox="0 0 31 30" fill="none" xmlns="http://www.w3.org/2000/svg">
<path d="M6.46202 22.0908L6.46219 22.091C7.371 23.6233 8.68229 24.9092 10.2692 25.8271C11.856 26.745 13.666 27.2648 15.5262 27.3378C17.3864 27.4108 19.236 27.0347 20.8984 26.2445C22.5608 25.4544 23.9814 24.2761 25.0228 22.821C26.0644 21.3658 26.6917 19.6826 26.8433 17.9324C26.9948 16.1822 26.6653 14.4253 25.8872 12.8301C25.1091 11.2351 23.909 9.85597 22.4034 8.82352C20.9581 7.83249 19.2772 7.19225 17.5098 6.95683V5.63489H19.2534C19.4725 5.63489 19.6855 5.55335 19.8449 5.4037C20.0048 5.25355 20.0979 5.04641 20.0979 4.8268L20.0979 3.46128L20.0979 3.46016C20.0969 3.24115 20.0037 3.03483 19.8442 2.88507C19.6851 2.73581 19.4729 2.65407 19.2544 2.6532H19.2534H13.255V2.65318L13.252 2.65322C13.0347 2.65581 12.8242 2.73834 12.6667 2.88746C12.5087 3.03707 12.4165 3.24239 12.4155 3.46017V3.46128V4.82679C12.4155 4.8268 12.4155 4.8268 12.4155 4.8268C12.4155 5.04518 12.5076 5.25131 12.666 5.4013C12.8239 5.5508 13.0351 5.63314 13.253 5.63488V5.63489H13.255H15.0011V6.90566C13.2577 7.05491 11.5763 7.59688 10.1001 8.48782C8.55811 9.41857 7.28934 10.7005 6.41274 12.2164C5.53606 13.7323 5.08036 15.4326 5.08899 17.1595C5.09761 18.8865 5.57027 20.5826 6.46202 22.0908ZM25.3628 10.374L25.6198 10.6566L25.776 10.308C26.2176 9.32223 26.1843 8.2333 25.5073 7.49145L25.3227 7.65996L25.5073 7.49144C24.6952 6.60163 23.2799 6.53818 22.0329 7.11227L21.6166 7.30394L22.0032 7.55021C23.253 8.34651 24.3829 9.29631 25.3628 10.374ZM6.19331 10.3075L6.25934 10.4558H6.42169H6.42422H6.5347L6.60908 10.3741C7.5898 9.297 8.7197 8.34721 9.96901 7.55012L10.3551 7.30379L9.93909 7.11227C8.69218 6.53822 7.27702 6.60162 6.4649 7.49124C5.78484 8.23346 5.75483 9.32265 6.19331 10.3075ZM17.8636 16.3184C17.6983 15.9666 17.4279 15.6721 17.0899 15.4683V11.7328C17.0899 11.4483 16.9693 11.1789 16.7605 10.9829C16.5522 10.7874 16.2729 10.6801 15.9848 10.6801C15.6966 10.6801 15.4173 10.7874 15.209 10.9829C15.0002 11.1789 14.8796 11.4483 14.8796 11.7328V15.4683C14.5416 15.6721 14.2712 15.9666 14.1059 16.3184C13.9185 16.7169 13.8779 17.1641 13.9916 17.5878C14.1051 18.0113 14.3651 18.3838 14.7266 18.6483C15.0878 18.9126 15.5306 19.0548 15.9848 19.0548C16.4389 19.0548 16.8817 18.9126 17.2429 18.6483C17.6044 18.3838 17.8644 18.0113 17.9779 17.5878C18.0916 17.1641 18.051 16.7169 17.8636 16.3184ZM11.1722 23.9232C9.38611 22.8036 8.10588 21.1083 7.57105 19.1641C7.24709 17.9767 7.20943 16.7367 7.46073 15.5341C7.87654 13.5647 9.05146 11.8042 10.7661 10.5913C12.4812 9.37809 14.6146 8.79907 16.7587 8.96766C18.9027 9.13624 20.9026 10.0402 22.3772 11.5029C23.8515 12.9651 24.6976 14.883 24.7586 16.8892C24.8195 18.8954 24.0913 20.8548 22.7087 22.393C21.3257 23.9317 19.3845 24.941 17.2543 25.2239C15.1241 25.5069 12.9586 25.0431 11.1722 23.9232Z" fill="#EE3C08" stroke="#EE3C08" stroke-width="0.5"/>
</svg>
