<svg width="99" height="40" viewBox="0 0 99 40" fill="none" xmlns="http://www.w3.org/2000/svg">
<path d="M85.2697 16.699C81.9918 16.699 79.3987 18.8028 78.8606 22.5211H91.7279C91.63 18.9496 88.7924 16.699 85.2697 16.699ZM98.1371 30.1045C96.6693 35.0949 92.1682 39.0578 85.4654 39.0578C77.5885 39.0578 71.8643 33.5782 71.8643 25.0652C71.8643 16.5033 77.4417 11.0726 85.4654 11.0726C93.2935 11.0726 98.822 16.4055 98.822 24.4781C98.822 25.3588 98.7731 26.2394 98.6263 27.1201H78.8116C79.1541 31.1319 81.8939 33.3825 85.3187 33.3825C88.2542 33.3825 89.8687 31.9147 90.7494 30.1045H98.1371Z" fill="white"/>
<path d="M45.0537 38.6174V2.41284H51.9032V23.0103L61.0033 11.5129H69.9077L57.9699 25.1141L70.0055 38.6174H61.1011L51.9032 27.0711V38.6174H45.0537Z" fill="white"/>
<path d="M31.438 38.6174V11.5129H38.2875V38.6174H31.438ZM34.9117 8.28385C32.4654 8.28385 30.7041 6.52255 30.7041 4.27199C30.7041 2.02144 32.4654 0.260132 34.9117 0.260132C37.309 0.260132 39.1192 2.02144 39.1192 4.27199C39.1192 6.52255 37.309 8.28385 34.9117 8.28385Z" fill="white"/>
<path d="M19.0319 28.5388C19.0319 25.6033 16.9281 23.842 13.6012 23.842H6.84952V33.0399H13.748C17.0749 33.0399 19.0319 31.4254 19.0319 28.5388ZM18.2001 14.3016C18.2001 11.5618 16.341 9.99619 13.1119 9.99619H6.84952V18.5581H13.1119C16.341 18.5581 18.2001 17.0903 18.2001 14.3016ZM25.9792 29.3705C25.9792 34.8012 21.8206 38.6174 14.7265 38.6174H0V4.46765H14.0904C21.2335 4.46765 25.1964 8.18596 25.1964 13.2742C25.1964 17.4328 22.7013 20.0258 19.3743 21.1022C23.2394 21.7871 25.9792 25.3587 25.9792 29.3705Z" fill="white"/>
<circle cx="34.9113" cy="4.20716" r="4.20716" fill="#EE3C08"/>
</svg>
